<svg width="24" height="21" viewBox="0 0 24 21" fill="none" xmlns="http://www.w3.org/2000/svg">
<g clip-path="url(#clip0_65_27)">
<path d="M16.775 3.41255L20.5333 7.11216C20.6917 7.26802 20.6917 7.52231 20.5333 7.67817L11.4333 16.636L7.56667 17.0584C7.05 17.1159 6.6125 16.6852 6.67083 16.1766L7.1 12.3704L16.2 3.41255C16.3583 3.25669 16.6167 3.25669 16.775 3.41255ZM23.525 2.47329L21.4917 0.471728C20.8583 -0.151709 19.8292 -0.151709 19.1917 0.471728L17.7167 1.92368C17.5583 2.07954 17.5583 2.33384 17.7167 2.4897L21.475 6.18931C21.6333 6.34517 21.8917 6.34517 22.05 6.18931L23.525 4.73735C24.1583 4.10981 24.1583 3.09673 23.525 2.47329ZM16 14.1997V18.375H2.66667V5.25005H12.2417C12.375 5.25005 12.5 5.19673 12.5958 5.10649L14.2625 3.46587C14.5792 3.15415 14.3542 2.62505 13.9083 2.62505H2C0.895833 2.62505 0 3.50688 0 4.5938V19.0313C0 20.1182 0.895833 21 2 21H16.6667C17.7708 21 18.6667 20.1182 18.6667 19.0313V12.559C18.6667 12.1202 18.1292 11.9028 17.8125 12.2104L16.1458 13.851C16.0542 13.9454 16 14.0684 16 14.1997Z" fill="#0D99FF"/>
</g>
<defs>
<clipPath id="clip0_65_27">
<rect width="24" height="21" fill="white"/>
</clipPath>
</defs>
</svg>
