<svg width="25" height="25" viewBox="0 0 25 25" fill="none" xmlns="http://www.w3.org/2000/svg">
<g clip-path="url(#clip0_13_14)">
<path d="M23.8229 22.9166H19.7917C19.7509 22.9184 19.7104 22.9098 19.674 22.8916C19.6375 22.8733 19.6063 22.8461 19.5833 22.8124C19.566 22.7786 19.5569 22.7411 19.5569 22.7031C19.5569 22.665 19.566 22.6275 19.5833 22.5937L20.9583 17.3854C20.9953 17.2432 20.9976 17.0943 20.9649 16.951C20.9323 16.8078 20.8657 16.6746 20.7708 16.5624C20.6718 16.4435 20.5475 16.3481 20.4069 16.2833C20.2664 16.2184 20.1131 16.1857 19.9583 16.1874H5.07292C4.91813 16.1857 4.76489 16.2184 4.62435 16.2833C4.4838 16.3481 4.35947 16.4435 4.26042 16.5624C4.16552 16.6746 4.09895 16.8078 4.06632 16.951C4.03369 17.0943 4.03595 17.2432 4.07292 17.3854L5.44792 22.5937C5.46528 22.6275 5.47434 22.665 5.47434 22.7031C5.47434 22.7411 5.46528 22.7786 5.44792 22.8124C5.42235 22.8511 5.3861 22.8816 5.34357 22.9001C5.30104 22.9186 5.25406 22.9243 5.20833 22.9166H1.17708C0.900815 22.9166 0.635864 23.0264 0.440513 23.2217C0.245163 23.4171 0.135416 23.682 0.135416 23.9583C0.135416 24.2346 0.245163 24.4995 0.440513 24.6949C0.635864 24.8902 0.900815 25 1.17708 25H23.8229C24.0992 25 24.3641 24.8902 24.5595 24.6949C24.7548 24.4995 24.8646 24.2346 24.8646 23.9583C24.8646 23.682 24.7548 23.4171 24.5595 23.2217C24.3641 23.0264 24.0992 22.9166 23.8229 22.9166ZM12.5 18.7499C12.7559 18.7479 13.0066 18.8219 13.2204 18.9626C13.4342 19.1032 13.6014 19.3042 13.7007 19.5401C13.8001 19.7759 13.8272 20.0359 13.7785 20.2872C13.7299 20.5384 13.6077 20.7695 13.4275 20.9512C13.2472 21.1329 13.0171 21.257 12.7663 21.3076C12.5154 21.3583 12.2552 21.3334 12.0186 21.2359C11.7819 21.1385 11.5796 20.9729 11.4372 20.7603C11.2948 20.5477 11.2188 20.2975 11.2187 20.0416C11.2174 19.8725 11.2495 19.7048 11.3133 19.5481C11.377 19.3915 11.4712 19.249 11.5903 19.1289C11.7094 19.0088 11.8511 18.9135 12.0073 18.8485C12.1634 18.7834 12.3309 18.7499 12.5 18.7499ZM6.54167 14.1354C6.54705 14.2699 6.60429 14.397 6.70139 14.4903C6.79849 14.5835 6.9279 14.6355 7.0625 14.6354H17.9375C18.0738 14.6354 18.2048 14.582 18.3022 14.4865C18.3995 14.3911 18.4556 14.2613 18.4583 14.1249C18.4581 13.0103 18.1457 11.9179 17.5566 10.9716C16.9675 10.0254 16.1251 9.26295 15.125 8.77078C15.0859 8.74916 15.0534 8.71747 15.0307 8.679C15.008 8.64053 14.996 8.59669 14.996 8.55203C14.996 8.50737 15.008 8.46353 15.0307 8.42506C15.0534 8.38659 15.0859 8.3549 15.125 8.33328C15.915 7.77119 16.5059 6.97254 16.8124 6.05266C17.1189 5.13279 17.1251 4.13931 16.83 3.21571C16.535 2.29211 15.954 1.48618 15.171 0.914332C14.388 0.342481 13.4435 0.0343018 12.474 0.0343018C11.5044 0.0343018 10.5599 0.342481 9.77689 0.914332C8.9939 1.48618 8.41293 2.29211 8.1179 3.21571C7.82286 4.13931 7.82902 5.13279 8.13549 6.05266C8.44197 6.97254 9.03289 7.77119 9.82292 8.33328C9.85961 8.3613 9.88914 8.39762 9.90906 8.43928C9.92898 8.48093 9.93873 8.52671 9.9375 8.57286C9.9321 8.61687 9.91598 8.65889 9.89055 8.69521C9.86513 8.73154 9.83117 8.76106 9.79167 8.7812C8.80785 9.28588 7.98325 10.0535 7.4095 10.9987C6.83576 11.9439 6.53535 13.0297 6.54167 14.1354ZM12.5 10.0729C12.7044 10.0729 12.9005 10.1541 13.0451 10.2986C13.1896 10.4432 13.2708 10.6393 13.2708 10.8437V12.1145C13.2708 12.319 13.1896 12.515 13.0451 12.6596C12.9005 12.8042 12.7044 12.8854 12.5 12.8854C12.2956 12.8854 12.0995 12.8042 11.9549 12.6596C11.8104 12.515 11.7292 12.319 11.7292 12.1145V10.8437C11.7292 10.6393 11.8104 10.4432 11.9549 10.2986C12.0995 10.1541 12.2956 10.0729 12.5 10.0729ZM10.0521 3.82287C10.0654 3.78545 10.0875 3.75176 10.1165 3.72459C10.1455 3.69742 10.1806 3.67754 10.2187 3.66662C10.2523 3.64838 10.2899 3.63883 10.3281 3.63883C10.3663 3.63883 10.4039 3.64838 10.4375 3.66662C11.3678 4.27212 12.4525 4.59753 13.5625 4.60412C13.9579 4.59978 14.3521 4.55793 14.7396 4.47912C14.7557 4.47089 14.7736 4.46659 14.7917 4.46659C14.8098 4.46659 14.8276 4.47089 14.8437 4.47912C14.8591 4.49197 14.8717 4.50785 14.8806 4.52577C14.8896 4.5437 14.8948 4.56327 14.8958 4.58328C14.8975 4.94831 14.8195 5.30929 14.6673 5.64108C14.5151 5.97288 14.2924 6.26749 14.0147 6.50439C13.737 6.74129 13.411 6.91478 13.0593 7.01277C12.7077 7.11076 12.3389 7.13088 11.9787 7.07174C11.6185 7.01261 11.2755 6.87563 10.9737 6.67036C10.6719 6.46508 10.4184 6.19646 10.231 5.88319C10.0437 5.56993 9.92684 5.21958 9.88874 4.85655C9.85063 4.49351 9.89216 4.12654 10.0104 3.7812L10.0521 3.82287Z" fill="white"/>
</g>
<defs>
<clipPath id="clip0_13_14">
<rect width="25" height="25" fill="white"/>
</clipPath>
</defs>
</svg>
