<svg width="24" height="19" viewBox="0 0 24 19" fill="none" xmlns="http://www.w3.org/2000/svg">
<g clip-path="url(#clip0_62_19)">
<path d="M3.6 4.75C3.6 3.49022 4.10571 2.28204 5.00589 1.39124C5.90606 0.500445 7.12696 0 8.4 0C9.67304 0 10.8939 0.500445 11.7941 1.39124C12.6943 2.28204 13.2 3.49022 13.2 4.75C13.2 6.00978 12.6943 7.21796 11.7941 8.10876C10.8939 8.99956 9.67304 9.5 8.4 9.5C7.12696 9.5 5.90606 8.99956 5.00589 8.10876C4.10571 7.21796 3.6 6.00978 3.6 4.75ZM0 17.8979C0 14.2426 2.9925 11.2812 6.68625 11.2812H10.1137C13.8075 11.2812 16.8 14.2426 16.8 17.8979C16.8 18.5064 16.3012 19 15.6862 19H1.11375C0.49875 19 0 18.5064 0 17.8979ZM17.6625 5.30664C18.015 4.95781 18.585 4.95781 18.9337 5.30664L20.6962 7.05078L22.4587 5.30664C22.8112 4.95781 23.3812 4.95781 23.73 5.30664C24.0787 5.65547 24.0825 6.21953 23.73 6.56465L21.9675 8.30879L23.73 10.0529C24.0825 10.4018 24.0825 10.9658 23.73 11.3109C23.3775 11.6561 22.8075 11.6598 22.4587 11.3109L20.6962 9.5668L18.9337 11.3109C18.5812 11.6598 18.0112 11.6598 17.6625 11.3109C17.3137 10.9621 17.31 10.398 17.6625 10.0529L19.425 8.30879L17.6625 6.56465C17.31 6.21582 17.31 5.65176 17.6625 5.30664Z" fill="white"/>
</g>
<defs>
<clipPath id="clip0_62_19">
<rect width="24" height="19" fill="white"/>
</clipPath>
</defs>
</svg>
