<svg width="24" height="19" viewBox="0 0 24 19" fill="none" xmlns="http://www.w3.org/2000/svg">
<g clip-path="url(#clip0_62_17)">
<path d="M8.4 9.5C11.0512 9.5 13.2 7.37363 13.2 4.75C13.2 2.12637 11.0512 0 8.4 0C5.74875 0 3.6 2.12637 3.6 4.75C3.6 7.37363 5.74875 9.5 8.4 9.5ZM11.76 10.6875H11.1337C10.3012 11.066 9.375 11.2812 8.4 11.2812C7.425 11.2812 6.5025 11.066 5.66625 10.6875H5.04C2.2575 10.6875 0 12.9215 0 15.675V17.2188C0 18.2021 0.80625 19 1.8 19H15C15.9937 19 16.8 18.2021 16.8 17.2188V15.675C16.8 12.9215 14.5425 10.6875 11.76 10.6875ZM23.8725 5.92266L22.83 4.87988C22.6575 4.70547 22.3762 4.70547 22.2 4.87617L18.27 8.73555L16.5637 7.03594C16.3912 6.86152 16.11 6.86152 15.9337 7.03223L14.88 8.06758C14.7037 8.23828 14.7037 8.5166 14.8762 8.69102L17.94 11.7451C18.1125 11.9195 18.3937 11.9195 18.57 11.7488L23.8687 6.54609C24.0412 6.37168 24.045 6.09336 23.8725 5.92266Z" fill="white"/>
</g>
<defs>
<clipPath id="clip0_62_17">
<rect width="24" height="19" fill="white"/>
</clipPath>
</defs>
</svg>
