<svg width="24" height="24" viewBox="0 0 24 24" fill="none" xmlns="http://www.w3.org/2000/svg">
<path fill-rule="evenodd" clip-rule="evenodd" d="M15.75 7.50005C15.75 8.49461 15.3549 9.44844 14.6517 10.1517C13.9484 10.855 12.9946 11.2501 12 11.2501C11.0054 11.2501 10.0516 10.855 9.34835 10.1517C8.64509 9.44844 8.25 8.49461 8.25 7.50005C8.25 6.50549 8.64509 5.55166 9.34835 4.8484C10.0516 4.14514 11.0054 3.75005 12 3.75005C12.9946 3.75005 13.9484 4.14514 14.6517 4.8484C15.3549 5.55166 15.75 6.50549 15.75 7.50005ZM16.521 11.4451C17.2784 10.577 17.7698 9.50935 17.9367 8.36952C18.1036 7.2297 17.9388 6.06593 17.4621 5.01724C16.9853 3.96854 16.2167 3.07926 15.2482 2.45563C14.2796 1.83199 13.152 1.50037 12 1.50037C10.848 1.50037 9.7204 1.83199 8.75183 2.45563C7.78326 3.07926 7.01469 3.96854 6.53794 5.01724C6.06119 6.06593 5.89641 7.2297 6.06329 8.36952C6.23016 9.50935 6.72164 10.577 7.479 11.4451C6.19571 11.7814 5.06005 12.5335 4.24965 13.5838C3.43924 14.6341 2.99978 15.9234 3 17.2501V19.5001C3 20.2957 3.31607 21.0588 3.87868 21.6214C4.44129 22.184 5.20435 22.5001 6 22.5001H18C18.7956 22.5001 19.5587 22.184 20.1213 21.6214C20.6839 21.0588 21 20.2957 21 19.5001V17.2501C21.0002 15.9234 20.5608 14.6341 19.7504 13.5838C18.9399 12.5335 17.8043 11.7814 16.521 11.4451ZM12 13.5001H9C8.00544 13.5001 7.05161 13.8951 6.34835 14.5984C5.64509 15.3017 5.25 16.2555 5.25 17.2501V19.5001C5.25 19.699 5.32902 19.8897 5.46967 20.0304C5.61032 20.171 5.80109 20.2501 6 20.2501H18C18.1989 20.2501 18.3897 20.171 18.5303 20.0304C18.671 19.8897 18.75 19.699 18.75 19.5001V17.2501C18.75 16.2555 18.3549 15.3017 17.6517 14.5984C16.9484 13.8951 15.9946 13.5001 15 13.5001H12Z" fill="#4338CA"/>
</svg>
