<svg width="25" height="25" viewBox="0 0 25 25" fill="none" xmlns="http://www.w3.org/2000/svg">
<path d="M12.7715 4.94533C12.6988 4.87579 12.6021 4.83698 12.5015 4.83698C12.4009 4.83698 12.3041 4.87579 12.2314 4.94533L3.24219 13.5327C3.20401 13.5693 3.17364 13.6131 3.15291 13.6617C3.13218 13.7103 3.12152 13.7626 3.12158 13.8154L3.12012 21.875C3.12012 22.2894 3.28474 22.6868 3.57776 22.9799C3.87079 23.2729 4.26822 23.4375 4.68262 23.4375H9.375C9.5822 23.4375 9.78091 23.3552 9.92743 23.2087C10.0739 23.0622 10.1563 22.8635 10.1563 22.6563V16.0156C10.1563 15.912 10.1974 15.8127 10.2707 15.7394C10.3439 15.6662 10.4433 15.625 10.5469 15.625H14.4531C14.5567 15.625 14.6561 15.6662 14.7293 15.7394C14.8026 15.8127 14.8438 15.912 14.8438 16.0156V22.6563C14.8438 22.8635 14.9261 23.0622 15.0726 23.2087C15.2191 23.3552 15.4178 23.4375 15.625 23.4375H20.3154C20.7298 23.4375 21.1273 23.2729 21.4203 22.9799C21.7133 22.6868 21.8779 22.2894 21.8779 21.875V13.8154C21.878 13.7626 21.8673 13.7103 21.8466 13.6617C21.8259 13.6131 21.7955 13.5693 21.7573 13.5327L12.7715 4.94533Z" fill="#E1E1D6"/>
<path d="M23.9702 11.9214L20.3179 8.42725V3.125C20.3179 2.9178 20.2356 2.71909 20.089 2.57257C19.9425 2.42606 19.7438 2.34375 19.5366 2.34375H17.1929C16.9857 2.34375 16.787 2.42606 16.6404 2.57257C16.4939 2.71909 16.4116 2.9178 16.4116 3.125V4.6875L13.5835 1.9834C13.3188 1.71582 12.9253 1.5625 12.5 1.5625C12.0762 1.5625 11.6836 1.71582 11.4189 1.98389L1.0332 11.9204C0.729492 12.2134 0.691406 12.6953 0.967773 13.0127C1.03717 13.0928 1.12215 13.158 1.21753 13.2042C1.31291 13.2504 1.4167 13.2768 1.52258 13.2816C1.62846 13.2864 1.73422 13.2697 1.83342 13.2324C1.93262 13.195 2.02319 13.1379 2.09961 13.0645L12.2314 3.38281C12.3041 3.31327 12.4009 3.27446 12.5015 3.27446C12.6021 3.27446 12.6988 3.31327 12.7715 3.38281L22.9043 13.0645C23.0536 13.2076 23.2535 13.2857 23.4603 13.2817C23.667 13.2777 23.8638 13.1918 24.0073 13.043C24.3071 12.7324 24.2822 12.2197 23.9702 11.9214Z" fill="#E1E1D6"/>
</svg>
