<svg width="25" height="25" viewBox="0 0 25 25" fill="none" xmlns="http://www.w3.org/2000/svg">
<path d="M10.9375 3.125H7.8125C7.09433 3.125 6.3832 3.26645 5.7197 3.54128C5.0562 3.81611 4.45333 4.21894 3.94551 4.72676C3.43769 5.23458 3.03486 5.83745 2.76003 6.50095C2.4852 7.16445 2.34375 7.87558 2.34375 8.59375C2.34375 9.31192 2.4852 10.0231 2.76003 10.6866C3.03486 11.35 3.43769 11.9529 3.94551 12.4607C4.45333 12.9686 5.0562 13.3714 5.7197 13.6462C6.3832 13.921 7.09433 14.0625 7.8125 14.0625H10.9375V18.75H3.90625V21.875H10.9375V25H14.0625V21.875H17.1875C18.6379 21.875 20.0289 21.2988 21.0545 20.2732C22.0801 19.2477 22.6562 17.8567 22.6562 16.4062C22.6562 14.9558 22.0801 13.5648 21.0545 12.5393C20.0289 11.5137 18.6379 10.9375 17.1875 10.9375H14.0625V6.25H21.0938V3.125H14.0625V0H10.9375V3.125ZM14.0625 14.0625H17.1875C17.8091 14.0625 18.4052 14.3094 18.8448 14.749C19.2843 15.1885 19.5312 15.7846 19.5312 16.4062C19.5312 17.0279 19.2843 17.624 18.8448 18.0635C18.4052 18.5031 17.8091 18.75 17.1875 18.75H14.0625V14.0625ZM10.9375 10.9375H7.8125C7.50471 10.9375 7.19994 10.8769 6.91559 10.7591C6.63123 10.6413 6.37286 10.4687 6.15522 10.251C5.93758 10.0334 5.76494 9.77502 5.64716 9.49066C5.52937 9.20631 5.46875 8.90154 5.46875 8.59375C5.46875 8.28596 5.52937 7.98119 5.64716 7.69684C5.76494 7.41248 5.93758 7.15411 6.15522 6.93647C6.37286 6.71883 6.63123 6.54619 6.91559 6.42841C7.19994 6.31062 7.50471 6.25 7.8125 6.25H10.9375V10.9375Z" fill="white"/>
</svg>
