<svg width="25" height="25" viewBox="0 0 25 25" fill="none" xmlns="http://www.w3.org/2000/svg">
<path d="M7.8125 1.5625C8.0197 1.5625 8.21841 1.64481 8.36493 1.79132C8.51144 1.93784 8.59375 2.13655 8.59375 2.34375V3.125H11.7188V2.34375C11.7188 2.13655 11.8011 1.93784 11.9476 1.79132C12.0941 1.64481 12.2928 1.5625 12.5 1.5625C12.7072 1.5625 12.9059 1.64481 13.0524 1.79132C13.1989 1.93784 13.2812 2.13655 13.2812 2.34375V3.125H16.4062V2.34375C16.4062 2.13655 16.4886 1.93784 16.6351 1.79132C16.7816 1.64481 16.9803 1.5625 17.1875 1.5625C17.3947 1.5625 17.5934 1.64481 17.7399 1.79132C17.8864 1.93784 17.9688 2.13655 17.9688 2.34375V3.125C18.5904 3.125 19.1865 3.37193 19.626 3.81147C20.0656 4.25101 20.3125 4.84715 20.3125 5.46875V15.625H14.8438C14.2221 15.625 13.626 15.8719 13.1865 16.3115C12.7469 16.751 12.5 17.3471 12.5 17.9688V23.4375H7.03125C6.40965 23.4375 5.81351 23.1906 5.37397 22.751C4.93443 22.3115 4.6875 21.7154 4.6875 21.0938V5.46875C4.6875 4.84715 4.93443 4.25101 5.37397 3.81147C5.81351 3.37193 6.40965 3.125 7.03125 3.125V2.34375C7.03125 2.13655 7.11356 1.93784 7.26007 1.79132C7.40659 1.64481 7.6053 1.5625 7.8125 1.5625ZM8.59375 8.59375C8.59375 8.80095 8.67606 8.99966 8.82257 9.14618C8.96909 9.29269 9.1678 9.375 9.375 9.375H15.625C15.8322 9.375 16.0309 9.29269 16.1774 9.14618C16.3239 8.99966 16.4062 8.80095 16.4062 8.59375C16.4062 8.38655 16.3239 8.18784 16.1774 8.04132C16.0309 7.89481 15.8322 7.8125 15.625 7.8125H9.375C9.1678 7.8125 8.96909 7.89481 8.82257 8.04132C8.67606 8.18784 8.59375 8.38655 8.59375 8.59375ZM8.59375 13.2812C8.59375 13.4885 8.67606 13.6872 8.82257 13.8337C8.96909 13.9802 9.1678 14.0625 9.375 14.0625H15.625C15.8322 14.0625 16.0309 13.9802 16.1774 13.8337C16.3239 13.6872 16.4062 13.4885 16.4062 13.2812C16.4062 13.074 16.3239 12.8753 16.1774 12.7288C16.0309 12.5823 15.8322 12.5 15.625 12.5H9.375C9.1678 12.5 8.96909 12.5823 8.82257 12.7288C8.67606 12.8753 8.59375 13.074 8.59375 13.2812ZM8.59375 17.9688C8.59375 18.176 8.67606 18.3747 8.82257 18.5212C8.96909 18.6677 9.1678 18.75 9.375 18.75H10.1562C10.3635 18.75 10.5622 18.6677 10.7087 18.5212C10.8552 18.3747 10.9375 18.176 10.9375 17.9688C10.9375 17.7615 10.8552 17.5628 10.7087 17.4163C10.5622 17.2698 10.3635 17.1875 10.1562 17.1875H9.375C9.1678 17.1875 8.96909 17.2698 8.82257 17.4163C8.67606 17.5628 8.59375 17.7615 8.59375 17.9688ZM14.0625 22.9531C14.1427 22.8906 14.2188 22.8229 14.2906 22.75L19.6266 17.4156C19.6995 17.3427 19.7661 17.2667 19.8266 17.1875H14.8438C14.6365 17.1875 14.4378 17.2698 14.2913 17.4163C14.1448 17.5628 14.0625 17.7615 14.0625 17.9688V22.9531Z" fill="#E1E1D6"/>
</svg>
