<svg width="21" height="25" viewBox="0 0 21 25" fill="none" xmlns="http://www.w3.org/2000/svg">
<g clip-path="url(#clip0_13_19)">
<path d="M21 20.6868C21 21.8696 20.6582 22.8841 19.9746 23.7305C19.291 24.5768 18.468 25 17.5055 25H3.49453C2.53203 25 1.70898 24.5768 1.02539 23.7305C0.341797 22.8841 0 21.8696 0 20.6868C0 19.7645 0.0464844 18.8938 0.139453 18.0745C0.232422 17.2553 0.404687 16.4307 0.65625 15.6006C0.907812 14.7705 1.22773 14.0598 1.61602 13.4684C2.0043 12.8771 2.51836 12.3942 3.1582 12.0199C3.79805 11.6455 4.53359 11.4583 5.36484 11.4583C6.79766 12.8472 8.50937 13.5417 10.5 13.5417C12.4906 13.5417 14.2023 12.8472 15.6352 11.4583C16.4664 11.4583 17.202 11.6455 17.8418 12.0199C18.4816 12.3942 18.9957 12.8771 19.384 13.4684C19.7723 14.0598 20.0922 14.7705 20.3438 15.6006C20.5953 16.4307 20.7676 17.2553 20.8605 18.0745C20.9535 18.8938 21 19.7645 21 20.6868ZM16.8 6.25C16.8 7.97526 16.1848 9.44824 14.9543 10.6689C13.7238 11.8896 12.2391 12.5 10.5 12.5C8.76094 12.5 7.27617 11.8896 6.0457 10.6689C4.81523 9.44824 4.2 7.97526 4.2 6.25C4.2 4.52474 4.81523 3.05176 6.0457 1.83105C7.27617 0.610352 8.76094 0 10.5 0C12.2391 0 13.7238 0.610352 14.9543 1.83105C16.1848 3.05176 16.8 4.52474 16.8 6.25Z" fill="white"/>
</g>
<defs>
<clipPath id="clip0_13_19">
<rect width="21" height="25" fill="white"/>
</clipPath>
</defs>
</svg>
