<svg width="25" height="25" viewBox="0 0 25 25" fill="none" xmlns="http://www.w3.org/2000/svg">
<path fill-rule="evenodd" clip-rule="evenodd" d="M8.33333 4.16666C7.22827 4.16666 6.16846 4.60565 5.38706 5.38705C4.60565 6.16845 4.16667 7.22826 4.16667 8.33333C4.16667 9.4384 4.60565 10.4982 5.38706 11.2796C6.16846 12.061 7.22827 12.5 8.33333 12.5C9.4384 12.5 10.4982 12.061 11.2796 11.2796C12.061 10.4982 12.5 9.4384 12.5 8.33333C12.5 7.22826 12.061 6.16845 11.2796 5.38705C10.4982 4.60565 9.4384 4.16666 8.33333 4.16666ZM6.25 13.5417C5.14493 13.5417 4.08512 13.9806 3.30372 14.762C2.52232 15.5434 2.08333 16.6033 2.08333 17.7083V18.75C2.08333 19.3025 2.30283 19.8324 2.69353 20.2231C3.08423 20.6138 3.61413 20.8333 4.16667 20.8333H12.5C13.0525 20.8333 13.5824 20.6138 13.9731 20.2231C14.3638 19.8324 14.5833 19.3025 14.5833 18.75V17.7083C14.5833 16.6033 14.1443 15.5434 13.3629 14.762C12.5815 13.9806 11.5217 13.5417 10.4167 13.5417H6.25ZM13.8021 11.3594C14.3 10.4635 14.5833 9.43229 14.5833 8.33333C14.5836 7.27441 14.3147 6.2328 13.8021 5.30624C14.3936 4.74659 15.1361 4.37251 15.9378 4.23023C16.7396 4.08796 17.5655 4.18373 18.3134 4.50571C19.0613 4.82769 19.6985 5.36176 20.1462 6.04192C20.5939 6.72208 20.8325 7.51852 20.8325 8.33281C20.8325 9.14709 20.5939 9.94353 20.1462 10.6237C19.6985 11.3039 19.0613 11.8379 18.3134 12.1599C17.5655 12.4819 16.7396 12.5777 15.9378 12.4354C15.1361 12.2931 14.3936 11.919 13.8021 11.3594ZM16.1104 20.8333C16.4646 20.2208 16.6677 19.5094 16.6677 18.75V17.7083C16.6696 16.1706 16.1027 14.6865 15.076 13.5417H18.75C19.8551 13.5417 20.9149 13.9806 21.6963 14.762C22.4777 15.5434 22.9167 16.6033 22.9167 17.7083V18.75C22.9167 19.3025 22.6972 19.8324 22.3065 20.2231C21.9158 20.6138 21.3859 20.8333 20.8333 20.8333H16.1104Z" fill="white"/>
</svg>
